<svg width="32" height="32" version="1.1" id="svg16" xmlns:xlink="http://www.w3.org/1999/xlink" xmlns="http://www.w3.org/2000/svg"><style id="style2">@media (prefers-color-scheme:dark){.a{fill:#f0f0f0}}</style><defs id="defs10"><radialGradient xlink:href="#a" id="b" cx="16" cy="8.11" fx="16" fy="8.11" r="15" gradientUnits="userSpaceOnUse" gradientTransform="translate(-8.354 -4.234) scale(1.5221)"/><radialGradient xlink:href="#linearGradient4456" id="radialGradient4562-4-1" gradientUnits="userSpaceOnUse" gradientTransform="translate(-396.985 146.99) scale(6.66814)" cx="14.239" cy="41.094" fx="14.239" fy="41.094" r="24"/><linearGradient id="a"><stop style="stop-color:#bada55;stop-opacity:1" offset="0" id="stop5"/><stop style="stop-color:#647c1b;stop-opacity:1" offset="1" id="stop7"/></linearGradient><linearGradient id="linearGradient4456"><stop id="stop4458" offset="0" style="stop-color:#5587da;stop-opacity:1"/><stop id="stop4460" offset="1" style="stop-color:#1b407c;stop-opacity:1"/></linearGradient><filter style="color-interpolation-filters:sRGB" id="filter4888-08-8" x="-.005" y="-.004" width="1.007" height="1.013"><feFlood flood-opacity=".275" flood-color="#000" result="flood" id="feFlood4890-2-4"/><feComposite in="flood" in2="SourceGraphic" operator="in" result="composite1" id="feComposite4892-2-2"/><feGaussianBlur in="composite1" stdDeviation=".2" result="blur" id="feGaussianBlur4894-21-1"/><feOffset dx="-.3" dy=".6" result="offset" id="feOffset4896-6-6"/><feComposite in="SourceGraphic" in2="offset" operator="over" result="composite2" id="feComposite4898-2-3"/></filter></defs><path id="path4560-38-7" style="display:inline;fill:#fff;fill-opacity:1;stroke:none;stroke-width:6.39228;stroke-linecap:round;stroke-linejoin:round;stroke-miterlimit:4;stroke-dasharray:none;stroke-dashoffset:0;stroke-opacity:1;filter:url(#filter4888-08-8);enable-background:new" d="M-386.352 419.76c-.369 1.824-.2 3.56 0 5.38 12.127 1.126 14.521 8.71 17.442 18.74l21.637 82.415v-64.137c-.842-15.782.973-15.102-13.735-16.691-.788-2.092-.642-3.822 0-5.944 14.553 1.355 29.042.63 43.598 0 .728 2.117.4 3.827 0 5.944-15.23 1.041-12.788 2.84-13.72 16.691l.044 33.01 13.713.275 14.982-47.105 14.983 47.105 13.713-.275.045-33.01c-.933-13.852 1.509-15.65-13.721-16.691-.401-2.117-.728-3.827 0-5.944 14.555.63 29.045 1.355 43.598 0 .642 2.122.787 3.852 0 5.944-14.708 1.59-12.893.91-13.735 16.691v64.137l21.637-82.414c2.92-10.03 5.314-17.615 17.441-18.74.2-1.82.37-3.557 0-5.381zm66.782 82.539-11.56 1.234v34.871zm34.36 0 11.56 36.105v-34.87z" transform="translate(69.51 -68.788) scale(.17687)"/></svg>