<svg xmlns="http://www.w3.org/2000/svg" viewBox="0 0 512 512" style="enable-background:new 0 0 512 512" xml:space="preserve"><path style="fill:#9b5a50" d="M335.453 61.835a8.87 8.87 0 0 1-2.302-.306c-20.392-5.495-47.793-8.524-77.151-8.524s-56.758 3.028-77.151 8.524c-4.707 1.271-9.551-1.519-10.819-6.227-1.271-4.707 1.517-9.551 6.225-10.822 21.849-5.888 50.879-9.131 81.746-9.131s59.896 3.243 81.746 9.131a8.827 8.827 0 0 1 6.225 10.822 8.833 8.833 0 0 1-8.519 6.533z"/><path style="fill:#ffc36e" d="M176.552 44.178a8.829 8.829 0 0 0-8.828 8.828v44.138h17.655V53.005a8.827 8.827 0 0 0-8.827-8.827zm158.896 0a8.829 8.829 0 0 0-8.828 8.828v44.138h17.655V53.005a8.826 8.826 0 0 0-8.827-8.827z"/><path style="fill:#915046" d="M459.034 476.65H52.966c-19.501 0-35.31-15.809-35.31-35.31V273.695h476.69V441.34c-.001 19.501-15.81 35.31-35.312 35.31z"/><path style="fill:#9b5a50" d="M247.172 256.04H35.31v185.3c0 9.751 7.904 17.655 17.655 17.655h185.379a8.829 8.829 0 0 0 8.828-8.828V256.04zm17.656 0v194.127a8.829 8.829 0 0 0 8.828 8.828h185.379c9.751 0 17.655-7.904 17.655-17.655v-185.3H264.828z"/><path style="fill:#aa6455" d="M459.034 300.178H52.966C23.713 300.178 0 276.465 0 247.212V105.891c0-9.751 7.904-17.655 17.655-17.655h476.69c9.751 0 17.655 7.904 17.655 17.655v141.321c0 29.253-23.713 52.966-52.966 52.966z"/><path style="fill:#874641" d="M459.034 317.833c12.87 0 24.908-3.517 35.31-9.556v-21.666c-9.376 8.408-21.726 13.566-35.31 13.566H52.966c-13.586 0-25.935-5.159-35.31-13.567v21.666c10.402 6.039 22.441 9.556 35.31 9.556h406.069v.001z"/><path style="fill:#9b5a50" d="M273.655 229.557h-35.31a8.829 8.829 0 0 0-8.828 8.828v61.793a8.829 8.829 0 0 0 8.828 8.828h35.31a8.829 8.829 0 0 0 8.828-8.828v-61.793a8.829 8.829 0 0 0-8.828-8.828z"/><path style="fill:#ffc36e" d="M282.483 335.488h-52.966a8.829 8.829 0 0 1-8.828-8.828v-44.138a8.829 8.829 0 0 1 8.828-8.828h52.966a8.829 8.829 0 0 1 8.828 8.828v44.138a8.83 8.83 0 0 1-8.828 8.828z"/><path style="fill:#ffd782" d="M273.655 335.488h-35.31v-35.31a8.829 8.829 0 0 1 8.828-8.828h17.655a8.829 8.829 0 0 1 8.828 8.828v35.31z"/><circle style="fill:#9b5a50" cx="256" cy="185.423" r="17.655"/></svg>